<?xml version="1.0" encoding="UTF-8" standalone="no"?>
<!-- Creator: CorelDRAW -->
<svg
   xmlns:dc="http://purl.org/dc/elements/1.1/"
   xmlns:cc="http://creativecommons.org/ns#"
   xmlns:rdf="http://www.w3.org/1999/02/22-rdf-syntax-ns#"
   xmlns:svg="http://www.w3.org/2000/svg"
   xmlns="http://www.w3.org/2000/svg"
   xmlns:sodipodi="http://sodipodi.sourceforge.net/DTD/sodipodi-0.dtd"
   xmlns:inkscape="http://www.inkscape.org/namespaces/inkscape"
   xml:space="preserve"
   width="11.6929in"
   height="8.26772in"
   style="shape-rendering:geometricPrecision; text-rendering:geometricPrecision; image-rendering:optimizeQuality; fill-rule:evenodd"
   viewBox="0 0 11692 8268"
   id="svg2495"
   sodipodi:version="0.32"
   inkscape:version="0.46"
   sodipodi:docname="jskat_logo.svg"
   inkscape:output_extension="org.inkscape.output.svg.inkscape"><metadata
   id="metadata2563"><rdf:RDF><cc:Work
       rdf:about=""><dc:format>image/svg+xml</dc:format><dc:type
         rdf:resource="http://purl.org/dc/dcmitype/StillImage" /></cc:Work></rdf:RDF></metadata><sodipodi:namedview
   inkscape:window-height="480"
   inkscape:window-width="640"
   inkscape:pageshadow="2"
   inkscape:pageopacity="0.0"
   guidetolerance="10.0"
   gridtolerance="10.0"
   objecttolerance="10.0"
   borderopacity="1.0"
   bordercolor="#666666"
   pagecolor="#ffffff"
   id="base"
   showgrid="false" />
 <defs
   id="defs2497"><inkscape:perspective
   sodipodi:type="inkscape:persp3d"
   inkscape:vp_x="0 : 372.04742 : 1"
   inkscape:vp_y="0 : 1000 : 0"
   inkscape:vp_z="1052.361 : 372.04742 : 1"
   inkscape:persp3d-origin="526.18048 : 248.03162 : 1"
   id="perspective2565" />
  <style
   type="text/css"
   id="style2499">
   
    .fil2 {fill:#1F1A17}
    .fil3 {fill:#DA251D}
    .fil0 {fill:#FFFFFF}
    .fil1 {fill:#B59269}
   
  </style>
 
  
  
 </defs>
 <g
   id="g2504"
   transform="translate(-392.68527,-21.815849)"
   inkscape:export-filename="/home/jan/data/projects/jskat/jskat/src/de/jskat/gui/img/gui/jskat_small.png"
   inkscape:export-xdpi="6.1589913"
   inkscape:export-ydpi="6.1589913">
   <g
   id="g2506">
    <path
   style="fill:#ffffff"
   id="path2508"
   d="M 5145,4227 L 5325,3649 C 5407,3625 5397,3568 5315,3562 C 4992,3581 4938,4024 5145,4227 z"
   class="fil0" />
    <path
   style="fill:#ffffff"
   id="path2510"
   d="M 4675,5543 L 5307,5570 L 5767,5254 L 7178,4935 C 7332,4978 7465,5056 7431,5242 C 7389,5389 7130,5592 6904,5635 C 6740,5678 6576,5636 6415,5554 C 6223,5499 6048,5508 5893,5592 C 5753,5665 5637,5683 5539,5661 C 5333,5777 5151,5826 4991,5806 C 4805,5782 4717,5680 4675,5543 z"
   class="fil0" />
    <path
   style="fill:#b59269"
   id="path2512"
   d="M 4820,5200 C 4736,5268 4675,5370 4672,5501 C 4744,5730 5043,5787 5266,5724 C 5446,5673 5565,5468 5730,5382 C 5839,5325 5908,5399 5889,5507 C 6030,5445 6187,5412 6377,5457 C 6489,5484 6600,5519 6719,5566 C 6864,5552 6973,5476 7028,5351 C 7121,5143 7018,4988 7150,4936 C 7073,4853 7061,4741 7113,4600 C 7194,4365 6976,4222 6882,4354 C 6817,4464 6665,4386 6787,4206 C 6966,3922 6991,3537 6731,2960 C 6500,2596 6184,2395 5805,2317 C 5200,2170 4723,2432 4419,2828 C 4106,3253 4092,3698 4265,4155 C 4301,4221 4292,4242 4240,4220 C 4212,4207 4199,4221 4201,4262 C 4233,4321 4269,4371 4317,4408 C 4396,4466 4475,4509 4554,4505 C 4584,4449 4525,4394 4525,4308 C 4524,4251 4522,4194 4498,4113 C 4458,4063 4436,4064 4432,4117 C 4421,4189 4401,4189 4372,4118 C 4234,3665 4283,3252 4542,2902 C 4805,2604 5113,2441 5459,2439 C 5793,2427 6094,2544 6364,2790 C 6709,3223 6822,3745 6593,4060 C 6415,4266 6317,4302 6338,4093 C 6361,3978 6278,3969 5991,3970 C 5791,3960 5610,3915 5445,3841 C 5375,3783 5334,3720 5323,3652 C 5214,3657 5125,3767 5076,3952 C 5087,4068 5134,4191 5199,4316 C 5261,4469 5302,4625 5305,4787 C 5213,4825 5156,4886 5147,4982 L 5042,5071 C 4968,5089 4892,5140 4820,5200 z"
   class="fil1" />
    <path
   style="fill:#ffffff"
   id="path2514"
   d="M 5387,5304 L 5458,5238 L 5564,5192 L 5641,5195 L 5589,5264 L 5445,5311 L 5387,5304 z"
   class="fil0" />
    <path
   style="fill:#1f1a17"
   id="path2516"
   d="M 5304,5253 C 5384,5135 5485,5079 5630,5095 L 5806,5113 C 5783,5130 5711,5135 5621,5127 C 5549,5121 5497,5128 5436,5163 C 5396,5187 5351,5231 5317,5270 C 5299,5291 5288,5276 5304,5253 z M 5355,5337 C 5376,5288 5439,5216 5553,5184 C 5605,5170 5639,5169 5720,5185 C 5709,5200 5686,5207 5648,5204 C 5589,5301 5501,5331 5388,5313 L 5368,5343 C 5361,5354 5351,5346 5355,5337 z M 5402,5299 L 5438,5266 C 5433,5282 5435,5296 5444,5306 L 5402,5299 z M 5567,5208 C 5584,5205 5605,5204 5626,5205 C 5617,5222 5602,5242 5586,5257 C 5585,5240 5578,5221 5567,5208 z M 5166,4939 C 5199,4855 5271,4801 5374,4802 C 5305,4840 5230,4891 5166,4939 z M 4261,4178 C 4203,4090 4178,4015 4149,3850 C 4015,2893 4785,2214 5566,2257 C 6116,2288 6904,2663 6937,3656 C 6947,3983 6908,4042 6792,4252 C 6716,4389 6816,4389 6845,4372 C 6864,4346 6916,4260 6989,4279 C 7133,4298 7148,4430 7154,4455 C 7174,4592 7031,4776 7170,4923 C 7209,4919 7231,4929 7250,4944 C 7603,5089 7428,5340 7303,5447 C 7056,5650 6926,5656 6725,5668 C 6385,5623 6469,5527 6168,5540 C 5898,5532 5850,5712 5534,5679 C 4688,6170 4307,5305 5047,5051 C 5066,5031 5092,5007 5114,4988 C 5135,4906 5185,4822 5278,4783 C 5287,4601 5197,4293 5096,4195 C 5014,4068 4961,3953 5035,3754 C 5066,3670 5159,3535 5341,3546 C 5377,3548 5441,3629 5347,3655 C 5351,3875 5824,3937 5965,3951 C 6178,3974 6365,3901 6364,4090 C 6345,4150 6343,4200 6376,4215 C 6428,4239 6611,4034 6642,3953 C 6768,3668 6670,3313 6495,3011 C 6307,2655 5776,2344 5181,2506 C 4708,2634 4283,3057 4317,3746 C 4325,3903 4355,3986 4390,4125 C 4416,4183 4421,4124 4415,4091 C 4412,4060 4449,4045 4477,4065 C 4563,4136 4531,4288 4542,4311 C 4550,4373 4551,4397 4580,4450 C 4603,4510 4554,4559 4472,4510 C 4384,4482 4271,4423 4196,4294 C 4175,4249 4176,4215 4215,4193 C 4220,4192 4235,4191 4244,4205 C 4261,4226 4286,4213 4261,4178 z M 4190,3846 C 4214,3950 4230,4060 4289,4162 C 4343,4207 4280,4280 4239,4247 C 4224,4229 4203,4235 4219,4272 C 4290,4379 4324,4414 4468,4474 C 4533,4513 4561,4500 4541,4428 C 4514,4387 4510,4353 4507,4288 C 4516,4139 4450,4045 4446,4129 C 4443,4173 4416,4234 4362,4148 C 4329,4075 4293,3927 4274,3745 C 4242,2932 4802,2571 5177,2463 C 5497,2371 6181,2390 6527,2991 C 6656,3235 6716,3396 6734,3602 C 6744,3961 6634,4067 6472,4221 C 6403,4270 6360,4267 6326,4229 C 6297,4173 6313,4135 6317,4100 C 6336,3942 6216,4027 5841,3968 C 5678,3939 5380,3902 5322,3706 C 5316,3691 5312,3682 5307,3664 C 5165,3679 5082,3934 5074,3956 C 5065,3824 5194,3645 5316,3634 C 5433,3619 5325,3540 5226,3596 C 5123,3655 5086,3722 5063,3781 C 5015,3963 5039,4045 5172,4242 C 5259,4345 5328,4645 5319,4770 C 5351,4762 5387,4758 5427,4761 C 5539,4712 5672,4677 5825,4660 C 6124,4600 6403,4467 6655,4174 C 6562,4345 6409,4490 6100,4618 C 5781,4755 5733,4642 5416,4818 C 5181,4952 5014,5120 4884,5311 C 4933,5214 4973,5146 5017,5089 C 4344,5412 4798,6082 5526,5650 C 5619,5603 5665,5493 5797,5440 C 5779,5420 5732,5441 5738,5423 C 5780,5394 5820,5434 5823,5437 C 5827,5441 5851,5475 5826,5501 C 5804,5508 5823,5487 5810,5464 C 5714,5489 5661,5592 5571,5657 C 5789,5679 5924,5521 6107,5510 C 6489,5494 6459,5605 6729,5636 C 6879,5641 7100,5591 7281,5424 C 7441,5274 7508,5089 7239,4969 C 7192,4945 7161,4945 7140,4962 C 7032,5005 7152,5129 7036,5368 C 6939,5525 6811,5607 6673,5557 C 6847,5574 7005,5446 7040,5264 C 7073,5090 7016,4981 7123,4937 C 7047,4844 7044,4752 7072,4650 C 7130,4515 7117,4480 7082,4386 C 7064,4354 7006,4317 6948,4323 C 6911,4332 6891,4439 6799,4433 C 6721,4432 6712,4345 6725,4284 C 6760,4119 6915,4110 6893,3674 C 6872,2860 6324,2357 5565,2300 C 4811,2244 4035,2930 4190,3846 z"
   class="fil2" />
   </g>
   <g
   id="g2518">
    <g
   id="g2520">
     <g
   id="g2522">
      <path
   style="fill:#1f1a17"
   id="path2524"
   d="M 5848,2723 L 6600,2942 C 6681,2965 6728,3051 6705,3132 L 6337,4400 C 6313,4481 6227,4528 6146,4505 L 5394,4286 C 5313,4263 5266,4177 5290,4096 L 5658,2828 C 5681,2747 5767,2700 5848,2723 z"
   class="fil2" />
      <path
   style="fill:#ffffff"
   id="path2526"
   d="M 5859,2759 L 6570,2965 C 6647,2988 6691,3068 6669,3145 L 6313,4371 C 6291,4448 6210,4492 6133,4470 L 5422,4264 C 5346,4241 5301,4160 5324,4084 L 5680,2858 C 5702,2781 5783,2737 5859,2759 z"
   class="fil0" />
     </g>
     <path
   style="fill:#da251d"
   id="path2528"
   d="M 6525,3006 L 6594,3179 L 6443,3288 L 6372,3114 L 6525,3006 z"
   class="fil3" />
    </g>
    <g
   id="g2530">
     <g
   id="g2532">
      <path
   style="fill:#1f1a17"
   id="path2534"
   d="M 5432,2796 L 6209,2895 C 6293,2906 6353,2983 6342,3067 L 6174,4377 C 6164,4460 6086,4520 6003,4510 L 5226,4410 C 5142,4399 5082,4322 5093,4238 L 5261,2929 C 5271,2845 5349,2785 5432,2796 z"
   class="fil2" />
      <path
   style="fill:#ffffff"
   id="path2536"
   d="M 5449,2829 L 6183,2923 C 6262,2933 6319,3006 6308,3086 L 6146,4352 C 6136,4431 6063,4487 5984,4477 L 5250,4383 C 5171,4373 5115,4300 5125,4221 L 5287,2955 C 5297,2876 5370,2819 5449,2829 z"
   class="fil0" />
     </g>
     <path
   style="fill:#da251d"
   id="path2538"
   d="M 6087,3259 L 6051,3192 C 6047,3185 6037,3166 6019,3137 C 6002,3108 5991,3085 5986,3068 C 5981,3052 5980,3036 5982,3021 C 5984,3006 5988,2994 5995,2984 C 6001,2974 6010,2966 6020,2962 C 6030,2958 6041,2957 6051,2958 C 6065,2960 6078,2966 6088,2977 C 6099,2988 6105,3001 6107,3016 C 6108,3023 6109,3028 6111,3031 C 6112,3033 6114,3034 6115,3034 C 6118,3034 6120,3034 6121,3032 C 6124,3030 6127,3026 6130,3019 C 6136,3004 6145,2993 6157,2985 C 6169,2978 6183,2975 6198,2977 C 6216,2980 6230,2988 6239,3002 C 6249,3015 6252,3033 6249,3056 C 6248,3071 6242,3086 6233,3101 C 6224,3116 6208,3135 6183,3159 C 6159,3183 6144,3198 6138,3204 L 6087,3259 z"
   class="fil3" />
    </g>
    <g
   id="g2540">
     <g
   id="g2542">
      <path
   style="fill:#1f1a17"
   id="path2544"
   d="M 5015,2893 L 5798,2893 C 5883,2893 5952,2962 5952,3047 L 5952,4367 C 5952,4451 5883,4521 5798,4521 L 5015,4521 C 4931,4521 4862,4451 4862,4367 L 4862,3047 C 4862,2962 4931,2893 5015,2893 z"
   class="fil2" />
      <path
   style="fill:#ffffff"
   id="path2546"
   d="M 5036,2924 L 5776,2924 C 5856,2924 5921,2990 5921,3069 L 5921,4346 C 5921,4426 5856,4491 5776,4491 L 5036,4491 C 4956,4491 4891,4426 4891,4346 L 4891,3069 C 4891,2990 4956,2924 5036,2924 z"
   class="fil0" />
     </g>
     <path
   style="fill:#1f1a17"
   id="path2548"
   d="M 5761,3270 L 5694,3270 C 5700,3261 5705,3254 5707,3247 C 5712,3237 5714,3226 5714,3214 C 5714,3203 5712,3195 5709,3190 C 5707,3187 5705,3185 5703,3185 C 5700,3185 5698,3186 5697,3188 C 5694,3190 5692,3194 5689,3200 C 5683,3216 5676,3226 5668,3232 C 5661,3238 5653,3241 5644,3241 C 5631,3241 5620,3236 5611,3225 C 5601,3214 5597,3200 5597,3181 C 5597,3171 5598,3163 5602,3155 C 5607,3143 5612,3134 5618,3127 L 5676,3049 C 5689,3033 5706,3009 5727,2976 C 5744,3002 5761,3027 5778,3049 L 5837,3127 C 5852,3145 5859,3164 5859,3183 C 5859,3200 5854,3214 5844,3225 C 5835,3236 5824,3241 5811,3241 C 5802,3241 5794,3238 5787,3233 C 5780,3228 5774,3217 5766,3201 C 5763,3194 5761,3189 5758,3187 C 5757,3186 5755,3185 5754,3185 C 5751,3185 5748,3187 5746,3190 C 5743,3195 5741,3203 5741,3214 C 5741,3234 5748,3252 5761,3270 z"
   class="fil2" />
    </g>
    <g
   id="g2550">
     <g
   id="g2552">
      <path
   style="fill:#1f1a17"
   id="path2554"
   d="M 4593,3072 L 5363,2934 C 5447,2919 5527,2975 5542,3058 L 5774,4358 C 5789,4441 5733,4521 5650,4536 L 4879,4674 C 4796,4689 4716,4633 4701,4550 L 4469,3250 C 4454,3167 4510,3087 4593,3072 z"
   class="fil2" />
      <path
   style="fill:#ffffff"
   id="path2556"
   d="M 4618,3099 L 5347,2969 C 5425,2954 5501,3007 5515,3086 L 5740,4342 C 5754,4421 5701,4497 5622,4511 L 4894,4641 C 4816,4655 4740,4602 4726,4524 L 4501,3267 C 4487,3189 4540,3113 4618,3099 z"
   class="fil0" />
     </g>
     <path
   style="fill:#1f1a17"
   id="path2558"
   d="M 5373,3315 L 5305,3327 C 5312,3314 5315,3303 5317,3295 C 5318,3287 5317,3277 5315,3265 C 5313,3255 5312,3248 5310,3245 C 5309,3242 5308,3240 5307,3239 C 5305,3238 5304,3238 5303,3238 C 5301,3239 5299,3240 5297,3241 C 5295,3243 5290,3250 5283,3261 C 5275,3272 5269,3279 5264,3283 C 5255,3289 5245,3293 5236,3295 C 5219,3298 5205,3294 5193,3285 C 5181,3275 5173,3261 5170,3242 C 5168,3229 5168,3216 5171,3204 C 5174,3191 5180,3182 5187,3175 C 5195,3169 5204,3165 5215,3163 C 5221,3162 5227,3162 5233,3162 C 5239,3163 5248,3165 5260,3170 C 5273,3174 5281,3175 5286,3175 C 5288,3174 5290,3173 5291,3172 C 5292,3170 5292,3168 5292,3165 C 5291,3162 5290,3160 5289,3158 C 5286,3156 5280,3153 5273,3150 C 5261,3146 5252,3139 5245,3130 C 5237,3120 5232,3111 5231,3101 C 5228,3085 5231,3070 5241,3057 C 5251,3044 5267,3035 5288,3031 C 5308,3028 5326,3030 5339,3039 C 5353,3048 5361,3061 5364,3077 C 5366,3088 5365,3099 5361,3110 C 5357,3121 5352,3130 5344,3136 C 5336,3143 5332,3148 5330,3150 C 5329,3153 5329,3155 5329,3158 C 5330,3161 5331,3162 5333,3164 C 5335,3165 5337,3166 5339,3165 C 5343,3164 5350,3160 5360,3152 C 5375,3139 5389,3131 5401,3129 C 5413,3127 5424,3128 5433,3132 C 5442,3135 5450,3143 5457,3154 C 5464,3165 5468,3176 5470,3188 C 5474,3207 5471,3223 5464,3236 C 5456,3249 5444,3257 5427,3260 C 5417,3262 5408,3262 5399,3259 C 5391,3257 5379,3250 5364,3239 C 5358,3235 5353,3232 5351,3231 C 5349,3230 5347,3230 5345,3231 C 5343,3231 5342,3231 5341,3232 C 5340,3234 5340,3236 5339,3239 C 5339,3244 5340,3250 5341,3259 C 5344,3272 5347,3282 5351,3290 C 5355,3297 5362,3305 5373,3315 z"
   class="fil2" />
     <path
   style="fill:#1f1a17"
   id="path2560"
   d="M 4873,4286 L 4939,4047 L 4970,4051 C 4968,4066 4968,4079 4968,4092 C 4969,4105 4971,4118 4973,4131 C 4983,4178 5002,4212 5030,4236 C 5058,4259 5089,4267 5124,4259 C 5159,4252 5182,4236 5194,4212 C 5206,4187 5207,4152 5198,4107 L 5118,3722 C 5108,3677 5097,3649 5085,3637 C 5072,3626 5053,3621 5025,3624 L 5019,3594 L 5366,3521 L 5373,3552 C 5353,3560 5341,3571 5336,3585 C 5332,3600 5334,3630 5344,3675 L 5419,4035 C 5429,4084 5432,4121 5428,4146 C 5423,4171 5412,4196 5393,4219 C 5372,4247 5341,4272 5301,4293 C 5262,4314 5216,4329 5163,4340 C 5106,4352 5054,4354 5007,4345 C 4961,4336 4916,4317 4873,4286 z"
   class="fil2" />
    </g>
   </g>
  </g>
</svg>